Title......The Terminal
Year.......2004
Cast.......Tom Hanks, Catherine Zeta-Jones, Stanley Tucci
Director...Steven Spielberg

IMDb.......http://www.imdb.com/title/tt0362227/

language...English
subtitles..English, Swedish, Bulgarian, Czech, greek, Polish, Portuguese, Romanian
           English(for the hearing impaired)

info:
Format                           : Matroska
File size                        : 4.37 GiB
Duration                         : 2h 3mn
Overall bit rate                 : 5 064 Kbps
Encoded date                     : UTC 2006-12-27 02:27:34
Writing application              : mkvmerge v1.7.0 ('What Do You Take Me For') built on Apr 28 2006 17:20:19
Writing library                  : libebml v0.7.7 + libmatroska v0.8.0

Video
ID                               : 1
Format                           : AVC
Format/Info                      : Advanced Video Codec
Format profile                   : High@L5.1
Format settings, CABAC           : Yes
Format settings, ReFrames        : 8 frames
Format settings, GOP             : M=1, N=2
Muxing mode                      : Container profile=Unknown@5.1
Codec ID                         : V_MPEG4/ISO/AVC
Duration                         : 2h 3mn
Bit rate                         : 4 675 Kbps
Width                            : 1 280 pixels
Height                           : 704 pixels
Display aspect ratio             : 16:9
Frame rate                       : 25.000 fps
Color space                      : YUV
Chroma subsampling               : 4:2:0
Bit depth                        : 8 bits
Scan type                        : Progressive
Bits/(Pixel*Frame)               : 0.208
Stream size                      : 3.95 GiB (90%)
Title                            : x264 Videostream
Writing library                  : x264 core 54 svn-606
Language                         : English

Audio
ID                               : 2
Format                           : AC-3
Format/Info                      : Audio Coding 3
Mode extension                   : CM (complete main)
Codec ID                         : A_AC3
Duration                         : 2h 3mn
Bit rate mode                    : Constant
Bit rate                         : 384 Kbps
Channel(s)                       : 2 channels
Channel positions                : Front: L R
Sampling rate                    : 48.0 KHz
Stream size                      : 339 MiB (8%)
Title                            : DD 5.1
Language                         : English

